<svg width="80" height="80" viewBox="0 0 80 80" fill="none" xmlns="http://www.w3.org/2000/svg">
<rect width="80" height="80" rx="15" fill="#1A1628"/>
<path d="M40 10C44.5751 10 49.0896 11.0464 53.1982 13.0592C57.3067 15.0719 60.9005 17.9977 63.7046 21.6128C66.5088 25.2278 68.4489 29.4363 69.3767 33.9164C70.3045 38.3964 70.1953 43.0293 69.0575 47.4607" stroke="#47A980" stroke-width="7" stroke-linecap="round"/>
<path d="M14.0192 55C11.7317 51.0378 10.3806 46.605 10.0695 42.0405C9.75829 37.4759 10.4952 32.9007 12.2239 28.6648C13.9525 24.4288 16.6271 20.6444 20.0431 17.6009C23.459 14.5574 27.5258 12.3355 31.9324 11.1051" stroke="#7852F1" stroke-width="7" stroke-linecap="round"/>
<path d="M65.9808 55C63.6932 58.9622 60.5297 62.3486 56.7324 64.9004C52.935 67.4521 48.6042 69.1015 44.0715 69.7224C39.5387 70.3433 34.9239 69.9193 30.5802 68.4828C26.2365 67.0462 22.2789 64.6352 19.0101 61.4342" stroke="#F49334" stroke-width="7" stroke-linecap="round"/>
<path d="M29.2393 55V25.9091H35.3899V38.7358H35.7734L46.2422 25.9091H53.6143L42.8189 38.9347L53.7422 55H46.3842L38.4155 43.0398L35.3899 46.733V55H29.2393Z" fill="#784DFF"/>
<path d="M76 10C76 13.3137 73.3137 16 70 16C66.6863 16 64 13.3137 64 10C64 6.68629 66.6863 4 70 4C73.3137 4 76 6.68629 76 10Z" fill="#FF7C23"/>
<path d="M72 7C72 7.55228 71.5523 8 71 8C70.4477 8 70 7.55228 70 7C70 6.44772 70.4477 6 71 6C71.5523 6 72 6.44772 72 7Z" fill="white"/>
<path d="M68.067 8.75C68.2594 8.41667 68.7406 8.41667 68.933 8.75L71.0981 12.5C71.2905 12.8333 71.05 13.25 70.6651 13.25H66.3349C65.95 13.25 65.7095 12.8333 65.9019 12.5L68.067 8.75Z" fill="white"/>
<path d="M71.067 9.75C71.2594 9.41667 71.7406 9.41667 71.933 9.75L73.2321 12C73.4245 12.3333 73.1839 12.75 72.799 12.75H70.201C69.8161 12.75 69.5755 12.3333 69.7679 12L71.067 9.75Z" fill="white"/>
</svg>
